<?xml version="1.0" standalone="no"?>
<!DOCTYPE svg PUBLIC "-//W3C//DTD SVG 20010904//EN"
 "http://www.w3.org/TR/2001/REC-SVG-20010904/DTD/svg10.dtd">
<svg version="1.0" xmlns="http://www.w3.org/2000/svg"
 width="438.000000pt" height="356.000000pt" viewBox="0 0 438.000000 356.000000"
 preserveAspectRatio="xMidYMid meet">

<g transform="translate(0.000000,356.000000) scale(0.100000,-0.100000)"
fill="#000000" stroke="none">
<path d="M1887 2757 c-98 -56 -117 -73 -212 -179 -58 -64 -105 -123 -105 -130
0 -23 84 -98 109 -98 14 0 48 22 86 55 l63 56 124 -142 c67 -77 123 -146 123
-152 0 -11 -33 -40 -251 -219 -145 -118 -193 -168 -224 -227 -28 -56 -25 -78
14 -117 41 -41 61 -42 124 -9 68 36 92 60 259 260 83 99 160 188 171 198 20
18 21 18 46 0 27 -20 211 -205 374 -376 88 -92 105 -106 122 -97 24 13 90 93
90 110 0 6 -44 53 -97 103 -156 144 -413 406 -413 420 0 14 327 341 407 406
29 23 66 60 83 81 l31 39 -30 31 -30 32 -53 -49 c-29 -26 -61 -59 -72 -73 -24
-30 -378 -394 -388 -398 -8 -4 -308 256 -308 268 0 4 27 56 61 115 l61 107
-23 24 c-12 13 -25 24 -28 24 -3 -1 -55 -29 -114 -63z m133 16 c0 -3 -25 -50
-56 -104 -53 -95 -78 -124 -208 -240 -73 -66 -73 -66 -117 -23 -21 21 -39 42
-39 47 0 5 44 57 98 116 85 93 110 114 197 163 85 48 125 61 125 41z m748 -34
c1 -8 -21 -38 -50 -66 -29 -28 -154 -150 -278 -272 -124 -121 -229 -221 -234
-221 -23 0 19 49 204 238 113 115 233 240 267 277 59 64 85 76 91 44z m-816
-246 c21 -20 38 -41 38 -47 0 -13 -41 -56 -54 -56 -13 0 -86 71 -86 83 0 9 50
57 60 57 2 0 21 -17 42 -37z m171 -154 c77 -72 85 -82 74 -100 -6 -10 -22 -19
-35 -19 -13 0 -32 -5 -44 -11 -23 -13 -42 2 -120 95 l-49 59 27 28 c15 16 35
29 44 29 8 0 55 -36 103 -81z m66 -173 c27 -29 24 -57 -7 -71 -13 -5 -76 -73
-140 -149 -210 -250 -252 -296 -305 -326 -29 -16 -58 -30 -65 -30 -25 0 -73
61 -66 84 19 65 78 128 271 285 109 89 208 178 221 197 27 41 59 45 91 10z
m86 16 c6 -4 36 -35 68 -69 58 -62 58 -63 56 -120 -1 -32 -3 -61 -5 -64 -2 -4
-42 30 -88 75 l-85 81 8 41 c11 60 23 74 46 56z m165 -232 c0 -40 -4 -70 -10
-70 -6 0 -10 30 -10 70 0 40 4 70 10 70 6 0 10 -30 10 -70z m263 -190 c37 -35
67 -68 67 -74 0 -14 -61 -76 -75 -76 -7 0 -57 48 -112 108 -56 59 -104 110
-109 115 -9 9 -16 116 -9 136 4 10 30 -9 88 -65 45 -44 112 -109 150 -144z"/>
<path d="M1870 1925 c-39 -41 -20 -48 24 -9 18 16 25 29 19 35 -5 5 -22 -4
-43 -26z"/>
<path d="M1783 1853 c-11 -10 -34 -29 -52 -42 -50 -39 -112 -142 -83 -141 4 1
20 21 35 46 16 24 53 65 83 91 51 44 65 63 46 63 -5 0 -18 -8 -29 -17z"/>
<path d="M1548 1284 c-107 -32 -142 -163 -67 -249 60 -67 164 -72 227 -9 18
18 31 38 27 44 -9 15 -55 12 -61 -5 -8 -19 -69 -38 -100 -31 -75 19 -100 121
-45 177 39 39 100 41 137 4 18 -19 31 -24 50 -19 30 8 30 14 -1 48 -42 45
-102 60 -167 40z"/>
<path d="M3115 1291 c-78 -19 -119 -71 -119 -151 -1 -72 29 -122 84 -144 53
-21 87 -20 132 3 36 20 36 20 41 0 7 -26 35 -24 42 4 4 13 5 50 3 82 l-3 60
-70 0 c-65 0 -70 -2 -73 -22 -3 -21 1 -23 42 -23 52 0 57 -10 21 -45 -17 -18
-35 -25 -64 -25 -58 0 -91 32 -98 93 -7 57 9 92 49 113 38 20 60 18 100 -9 27
-19 39 -22 56 -14 31 14 28 23 -15 51 -44 28 -86 37 -128 27z"/>
<path d="M826 1253 c15 -21 38 -52 51 -69 13 -17 23 -37 23 -44 0 -7 -23 -42
-51 -77 -35 -44 -48 -68 -41 -75 20 -20 59 2 93 52 19 27 37 49 42 47 4 -1 24
-25 45 -52 36 -48 74 -68 92 -48 5 4 -16 40 -46 78 -29 39 -54 73 -54 78 0 4
23 36 50 71 28 35 50 66 50 70 0 3 -13 6 -29 6 -24 0 -36 -10 -67 -52 l-37
-52 -46 52 c-35 40 -53 52 -75 52 l-28 0 28 -37z"/>
<path d="M1852 1138 c3 -140 5 -153 22 -156 25 -5 37 15 35 63 0 22 0 46 0 53
1 8 22 12 71 12 l69 0 3 -62 c3 -57 5 -63 26 -66 24 -4 24 -4 26 193 1 104 -1
115 -30 115 -21 0 -23 -5 -26 -62 l-3 -63 -67 -3 -68 -3 -1 28 c-1 15 -2 44
-3 63 -1 30 -5 35 -29 38 l-28 3 3 -153z"/>
<path d="M2315 1278 c-2 -7 -27 -73 -55 -145 -27 -73 -50 -137 -50 -143 0 -6
12 -9 27 -7 21 3 30 11 37 35 l9 32 71 0 c70 0 71 -1 86 -33 15 -33 60 -52 60
-25 0 7 -23 71 -50 143 -28 71 -50 135 -50 142 0 17 -79 18 -85 1z m83 -167
c-3 -12 -13 -15 -43 -13 -22 2 -41 5 -43 7 -2 2 7 32 19 66 l23 63 23 -54 c13
-29 22 -60 21 -69z"/>
<path d="M2612 1138 c3 -150 3 -153 26 -156 22 -3 22 -2 22 102 0 58 4 107 9
111 5 3 35 -38 67 -91 68 -114 77 -124 115 -124 l29 0 0 156 0 155 -27 -3 -28
-3 -3 -102 c-1 -57 -6 -103 -10 -103 -4 0 -16 15 -26 33 -10 17 -39 65 -65
104 -42 66 -49 73 -79 73 l-33 0 3 -152z"/>
<path d="M3410 1141 c0 -172 -7 -161 106 -161 71 0 74 1 74 24 0 21 -5 24 -61
30 l-60 7 3 32 c3 31 5 32 51 35 26 2 48 7 49 13 4 31 0 34 -47 39 -50 5 -50
5 -53 43 l-3 37 60 0 c58 0 61 1 61 25 0 25 -1 25 -90 25 l-90 0 0 -149z"/>
<path d="M1197 1113 c-4 -3 -7 -15 -7 -25 0 -17 7 -19 73 -16 66 3 72 5 75 26
3 21 0 22 -66 22 -38 0 -72 -3 -75 -7z"/>
<path d="M1438 783 c5 -21 7 -23 10 -9 2 10 0 22 -6 28 -6 6 -7 0 -4 -19z"/>
<path d="M2212 780 c0 -14 2 -19 5 -12 2 6 2 18 0 25 -3 6 -5 1 -5 -13z"/>
<path d="M3022 775 c0 -16 2 -22 5 -12 2 9 2 23 0 30 -3 6 -5 -1 -5 -18z"/>
</g>
</svg>
