<?xml version="1.0" encoding="iso-8859-1"?>
<!-- Generator: Adobe Illustrator 19.0.0, SVG Export Plug-In . SVG Version: 6.00 Build 0)  -->
<svg version="1.1" id="Layer_1" xmlns="http://www.w3.org/2000/svg" xmlns:xlink="http://www.w3.org/1999/xlink" x="0px" y="0px"
	 viewBox="0 0 512 512" style="enable-background:new 0 0 512 512;" xml:space="preserve">
<rect x="10.199" y="264.088" style="fill:#FFFFFF;" width="298.398" height="89.019"/>
<rect x="10.199" y="124.502" style="fill:#F07057;" width="298.398" height="139.586"/>
<polygon style="fill:#FFFFFF;" points="344.003,222.621 344.003,124.502 308.599,124.502 308.599,353.107 408.74,353.107 
	501.801,353.107 501.801,222.621 501.801,222.621 "/>
<g>
	<circle style="fill:#84B3D2;" cx="375.361" cy="353.107" r="34.392"/>
	<circle style="fill:#84B3D2;" cx="79.992" cy="353.107" r="34.392"/>
</g>
<polygon style="fill:#F07057;" points="501.801,222.621 405.706,124.502 344.003,124.502 344.003,222.621 "/>
<path d="M0,353.107c0,5.633,4.567,10.199,10.199,10.199h26.395c4.626,19.686,22.322,34.392,43.4,34.392s38.774-14.705,43.401-34.392
	h208.565c4.626,19.686,22.323,34.392,43.401,34.392c21.078,0,38.774-14.705,43.4-34.392h83.042c5.632,0,10.199-4.566,10.199-10.199
	V222.62c0-0.045-0.012-0.085-0.019-0.127c-0.033-2.573-1.021-5.097-2.894-7.009l-96.095-98.118
	c-1.918-1.958-4.545-3.063-7.287-3.063H10.199C4.567,114.302,0,118.868,0,124.501V353.107z M477.536,212.42H354.202v-77.719h47.217
	L477.536,212.42z M20.398,134.701H298.4v119.192H20.398V134.701z M20.398,274.292H298.4v68.616H123.395
	c-4.626-19.686-22.323-34.392-43.401-34.392s-38.774,14.705-43.4,34.392H20.398V274.292z M79.994,377.3
	c-13.34,0-24.193-10.853-24.193-24.193c0-13.34,10.853-24.193,24.193-24.193c13.341,0,24.194,10.853,24.194,24.193
	C104.188,366.447,93.335,377.3,79.994,377.3z M375.36,377.3c-13.341,0-24.194-10.853-24.194-24.193
	c0-13.34,10.853-24.193,24.194-24.193c13.34,0,24.193,10.853,24.193,24.193C399.553,366.447,388.7,377.3,375.36,377.3z
	 M318.799,134.701h15.005v87.919c0,5.633,4.567,10.199,10.199,10.199h147.599v21.075H435.04c-5.632,0-10.199,4.566-10.199,10.199
	s4.567,10.199,10.199,10.199h56.562v68.616h-72.841c-4.626-19.687-22.322-34.392-43.4-34.392c-21.078,0-38.774,14.705-43.401,34.392
	H318.8V134.701H318.799z"/>
<path d="M396.296,253.893h-11.985c-5.632,0-10.199,4.566-10.199,10.199s4.567,10.199,10.199,10.199h11.985
	c5.632,0,10.199-4.566,10.199-10.199S401.928,253.893,396.296,253.893z"/>
<g>
</g>
<g>
</g>
<g>
</g>
<g>
</g>
<g>
</g>
<g>
</g>
<g>
</g>
<g>
</g>
<g>
</g>
<g>
</g>
<g>
</g>
<g>
</g>
<g>
</g>
<g>
</g>
<g>
</g>
</svg>
